/* XPM */
static char *result[] = {
/* columns rows colors chars-per-pixel */
"77 75 44 1 ",
"  c #FF9415",
". c #FF961A",
"X c #FF981E",
"o c #FF9A23",
"O c #FF9E2C",
"+ c #FFA02F",
"@ c #FFA233",
"# c #FFA63B",
"$ c #FFA740",
"% c #FFAA44",
"& c #FFAD4B",
"* c #FFAF50",
"= c #FFB155",
"- c #FFB45C",
"; c #FFB761",
": c #FFB965",
"> c #FFBB6B",
", c #FFBE72",
"< c #FFC076",
"1 c #FFC37B",
"2 c #FFC682",
"3 c #FFC886",
"4 c #FFCA8B",
"5 c #FFCE93",
"6 c #FFD097",
"7 c #FFD29C",
"8 c #FFD5A4",
"9 c #FFD7A9",
"0 c #FFD9AC",
"q c #FFDCB3",
"w c #FFDFB9",
"e c #FFE1BD",
"r c #FFE4C4",
"t c #FFE7CA",
"y c #FFE8CD",
"u c #FFEBD4",
"i c #FFEEDA",
"p c #FFF0DE",
"a c #FFF3E4",
"s c #FFF6EB",
"d c #FFF8EF",
"f c #FFFAF4",
"g c #FFFFFE",
"h c None",
/* pixels */
"hhhhhhhhhhhhhhhhhhhhhhhhhhhhhhhhhhhhhhhhhhhhhhhhhhhhhhhhhhhhhhhhhhhhhhhhhhhhh",
"hhhhhhhhhhhhhhhhhhhhhhhhhhhhhhhh               hhhhhhhhhhhhhhhhhhhhhhhhhhhhhh",
"hhhhhhhhhhhhhhhhhhhhhhhhhhhhhhhh                hhhhhhhhhhhhhhhhhhhhhhhhhhhhh",
"hhhhhhhhhhhhhhhhhhhhhhhhhhhh                        hhhhhhhhhhhhhhhhhhhhhhhhh",
"hhhhhhhhhhhhhhhhhhhhhhhhh                              hhhhhhhhhhhhhhhhhhhhhh",
"hhhhhhhhhhhhhhhhhhhhhhhh                                 hhhhhhhhhhhhhhhhhhhh",
"hhhhhhhhhhhhhhhhhhhhh                                      hhhhhhhhhhhhhhhhhh",
"hhhhhhhhhhhhhhhhhhhh                                        hhhhhhhhhhhhhhhhh",
"hhhhhhhhhhhhhhhhhhh                   .                       hhhhhhhhhhhhhhh",
"hhhhhhhhhhhhhhhhhh                   XoXX                      hhhhhhhhhhhhhh",
"hhhhhhhhhhhhhhhhh                    O->>-#o                    hhhhhhhhhhhhh",
"hhhhhhhhhhhhhhh                      %8rt0:@ .oOoX.              hhhhhhhhhhhh",
"hhhhhhhhhhhhhh                       =usff3# @=3>&+X              hhhhhhhhhhh",
"hhhhhhhhhhhhh                       o:sfgg1O %3te8<#               hhhhhhhhhh",
"hhhhhhhhhhhh             ..oooX.    O1ggfs;. ;qgga9&                hhhhhhhhh",
"hhhhhhhhhhh              o@-;%@o    &5ggst=  1tggp5%                 hhhhhhhh",
"hhhhhhhhhhh              O-8q851:-&#,wggp8%  5aggu,@                 hhhhhhhh",
"hhhhhhhhhh               %3iggsir94<9uggu3$oo9fggr&O                  hhhhhhh",
"hhhhhhhhh                *qaggffffsadfggp6;%*rggfwO.                   hhhhhh",
"hhhhhhhhh               .*0idgggggggggggsy089iggs8o                    hhhhhh",
"hhhhhhhh                .%40tpdggggggggggggfdgggi7#oX.                  hhhhh",
"hhhhhhhh                 o+%-,wsggggggggggggggggfu6:#o.                  hhhh",
"hhhhhhh                    oO#4tgggggggggggggggggsuw6,&+.                hhhh",
"hhhhhhh                      .:qggggggggggggggggggggsu6:@X                hhh",
"hhhhhh                       X>wgggggggffggggggggggggfar1#                hhh",
"hhhhhh                       X2tgggggggt959rifgggggggggsr,@               hhh",
"hhhhhh                      .o6pggggggg6&O&,6risggggggggg9-o              hhh",
"hhhhh                       o@9sggggggg1@.oo@$,waggggggggu6@.              hh",
"hhhhh                       o&wfggggggd:X    X@-8pgggggggdw%o              hh",
"hhhhh                       @;tggggggfi-        -9gggggggft=O              hh",
"hhhhh                       #3iggggggaq&        @<fgggggggy-O               h",
"hhhh                        &9aggggggi4#        o:fgggggggt*O               h",
"hhhh                       X-tsggggggt:@        O,fggggggfr&o               h",
"hhhh                       o>ifggggggr#o        =7ggggggga9@X               h",
"hhhh                      .@2sgggggggu5,-%#@+@%-6ugggggggt2O                h",
"hhhh                      .%5gggggggggsy051>:,40agggggggs8*X                h",
"hhhh                      .-0ggggggggggfsaaaaaadfggggggsq;o                 h",
"hhhh                      X1rgggggggggggggggggggggggfiw4-@.                 h",
"hhhh                      o5ugggggggsiasdgggggggggggsr1%X.                  h",
"hhhh                     .@9sggggggg4;,5qifggggggggggs9:o.                  h",
"hhhh                     o&wfgggggfa;+@&-<49ysggggggggi0,@.                 h",
"hhhh                    .O-rggggggst&     O&2raggggggggsw:o                 h",
"hhhh                     @,ugggggga9&     .o@>9dgggggggga3@.                h",
"hhhh                     %5iggggggu4#       X@:qagggggggg9*X                h",
"hhhh               XO@Ooo;wsggggggt;+         +:rggggggggw,X                h",
"hhhhh              @>44>:5afgggggge#o         X+qggggggggt1o                h",
"hhhhh             X-0yyeeufggggggf9o.         .o0ggggggggt1o                h",
"hhhhh            .O1afgggggggggggi4.          X@wgggggggge,X               hh",
"hhhhh            X&7fggggggggggggr<o.         @<tgggggggg9-X               hh",
"hhhhhh           X;9sfgggggggggggi01:=%#++++@&1eagggggggf5$.              hhh",
"hhhhhh           X-4eupsffgggggggfsur95<:;;:>6rfgggggggfi<O               hhh",
"hhhhhh            o@&;16euafgggggggfffaapuuupsfggggggggs0=.               hhh",
"hhhhhhh            .oO#&;15ufgggggggggggggfgggggggggggfr,#               hhhh",
"hhhhhhh                 .o%qsggdaassgggggggggggggggggft5#X               hhhh",
"hhhhhhhh                 o&efgfy214wagggggggggggggggar<#.               hhhhh",
"hhhhhhhh                 +;yggs9%%*1ugggdyiaassssiuw5:#X                hhhhh",
"hhhhhhhhh                #2iggi4o.+;tgggu469qwwwq94:#o                 hhhhhh",
"hhhhhhhhh                %8aggt1  @2uggs9@@@##%$#@OoX                  hhhhhh",
"hhhhhhhhhh              .-wsggw;  &9aggu3   XXX..                     hhhhhhh",
"hhhhhhhhhhh             X-tsgf6&  *tsggw>.                            hhhhhhh",
"hhhhhhhhhhhh            o=9isf1#  :sfgg7*                            hhhhhhhh",
"hhhhhhhhhhhh            .@-<35*o @2gggg3@                           hhhhhhhhh",
"hhhhhhhhhhhhhh              o@o. $3pass:X                          hhhhhhhhhh",
"hhhhhhhhhhhhhhh             .X   o@=270&                          hhhhhhhhhhh",
"hhhhhhhhhhhhhhhh                  .o#=-O                         hhhhhhhhhhhh",
"hhhhhhhhhhhhhhhhh                                               hhhhhhhhhhhhh",
"hhhhhhhhhhhhhhhhhh                                             hhhhhhhhhhhhhh",
"hhhhhhhhhhhhhhhhhhh                                          hhhhhhhhhhhhhhhh",
"hhhhhhhhhhhhhhhhhhhhh                                       hhhhhhhhhhhhhhhhh",
"hhhhhhhhhhhhhhhhhhhhhhh                                   hhhhhhhhhhhhhhhhhhh",
"hhhhhhhhhhhhhhhhhhhhhhhh                                hhhhhhhhhhhhhhhhhhhhh",
"hhhhhhhhhhhhhhhhhhhhhhhhhh                            hhhhhhhhhhhhhhhhhhhhhhh",
"hhhhhhhhhhhhhhhhhhhhhhhhhhhhhh                    hhhhhhhhhhhhhhhhhhhhhhhhhhh",
"hhhhhhhhhhhhhhhhhhhhhhhhhhhhhhhhh               hhhhhhhhhhhhhhhhhhhhhhhhhhhhh",
"hhhhhhhhhhhhhhhhhhhhhhhhhhhhhhhhhhhhhhhhhhhhhhhhhhhhhhhhhhhhhhhhhhhhhhhhhhhhh"
};
