/* XPM */
static char *b28e408f5fb74f8df4a282864dc6f64cj9THpslWkMo0h9Z8[] = {
/* columns rows colors chars-per-pixel */
"67 100 220 2 ",
"   c None",
".  c #050506",
"X  c #050609",
"o  c #06090D",
"O  c #0B0B0C",
"+  c #080707",
"@  c #040C13",
"#  c #090D13",
"$  c #050E1A",
"%  c #090F1A",
"&  c #051017",
"*  c #03131C",
"=  c #08111C",
"-  c #0C1115",
";  c #141414",
":  c #1C1B1B",
">  c #1A1715",
",  c #16130E",
"<  c #221C19",
"1  c #2A2117",
"2  c #352816",
"3  c #051423",
"4  c #061925",
"5  c #06162A",
"6  c #061B2B",
"7  c #091A2B",
"8  c #091725",
"9  c #131F26",
"0  c #061A33",
"q  c #091B33",
"w  c #071E3B",
"e  c #091E3A",
"r  c #070E20",
"t  c #07202F",
"y  c #0C212E",
"u  c #1A252B",
"i  c #072434",
"p  c #092535",
"a  c #07243A",
"s  c #08253A",
"d  c #072A3D",
"f  c #08293C",
"g  c #142737",
"h  c #242424",
"j  c #2B2B2B",
"k  c #292727",
"l  c #342B27",
"z  c #343127",
"x  c #242C34",
"c  c #2B3437",
"v  c #343434",
"b  c #34393D",
"n  c #3B3C3D",
"m  c #383535",
"M  c #4B3519",
"N  c #583C1B",
"B  c #402B15",
"V  c #473C37",
"C  c #51423B",
"Z  c #524431",
"A  c #716937",
"S  c #58421A",
"D  c #072344",
"F  c #082443",
"G  c #07254A",
"H  c #08264C",
"J  c #072D4E",
"K  c #092B4D",
"L  c #072946",
"P  c #1A334C",
"I  c #072A53",
"U  c #092A54",
"Y  c #072D5B",
"T  c #092D5B",
"R  c #1B3858",
"E  c #0F2F54",
"W  c #273843",
"Q  c #393E42",
"!  c #082F60",
"~  c #093264",
"^  c #09356B",
"/  c #083365",
"(  c #153A63",
")  c #093974",
"_  c #093D7B",
"`  c #083871",
"'  c #133F72",
"]  c #3C4145",
"[  c #31444A",
"{  c #374657",
"}  c #3C565E",
"|  c #2E4056",
" . c #0E417D",
".. c #144479",
"X. c #18496C",
"o. c #264565",
"O. c #354A68",
"+. c #15667A",
"@. c #2B5864",
"#. c #444343",
"$. c #4B4B4B",
"%. c #494546",
"&. c #594C46",
"*. c #48585A",
"=. c #545454",
"-. c #5C5C5C",
";. c #5A565E",
":. c #505745",
">. c #65534B",
",. c #665244",
"<. c #675952",
"1. c #725C53",
"2. c #735B49",
"3. c #5D6956",
"4. c #5F664D",
"5. c #7A655A",
"6. c #6E7351",
"7. c #596872",
"8. c #4F6E76",
"9. c #656464",
"0. c #6B6B6B",
"q. c #6F6460",
"w. c #6A7575",
"e. c #777777",
"r. c #776E6E",
"t. c #836B5E",
"y. c #857F47",
"u. c #866E62",
"i. c #8B7265",
"p. c #8A7469",
"a. c #957B6D",
"s. c #977D70",
"d. c #8A7A74",
"f. c #9A8A3D",
"g. c #A3913F",
"h. c #8A8347",
"j. c #9E9858",
"k. c #BBA84B",
"l. c #9D8173",
"z. c #A28576",
"x. c #AB8C7C",
"c. c #A58879",
"v. c #C9B24C",
"b. c #CBB34C",
"n. c #DEC34F",
"m. c #FDDC58",
"M. c #F6D756",
"N. c #E4C851",
"B. c #093F81",
"V. c #094184",
"C. c #0A458C",
"Z. c #0E488A",
"A. c #134681",
"S. c #0A4791",
"D. c #0A4A95",
"F. c #0A4994",
"G. c #0A4C9A",
"H. c #094E9E",
"J. c #0A4D9C",
"K. c #0A748E",
"L. c #176D83",
"P. c #094FA1",
"I. c #094FA1",
"U. c #0950A2",
"Y. c #0950A3",
"T. c #0A50A1",
"R. c #0950A2",
"E. c #2A6385",
"W. c #537983",
"Q. c #058EB0",
"!. c #5C8994",
"~. c #679AA7",
"^. c #72A9B8",
"/. c #7C8486",
"(. c #77B1C0",
"). c #8D8C8C",
"_. c #838384",
"`. c #949393",
"'. c #9C9C9C",
"]. c #948E8D",
"[. c #A99285",
"{. c #B49382",
"}. c #B99786",
"|. c #BE9B8A",
" X c #BB9987",
".X c #A98E82",
"XX c #A4A4A4",
"oX c #ACACAC",
"OX c #B4B4B5",
"+X c #BCBCBC",
"@X c #B0B6B9",
"#X c #A9B2BE",
"$X c #8D99A9",
"%X c #C29E8C",
"&X c #CAA592",
"*X c #CDA996",
"=X c #C7A390",
"-X c #D4AD99",
";X c #D1AB97",
":X c #DBB29E",
">X c #C3A18F",
",X c #DEB5A1",
"<X c #E0B7A1",
"1X c #E4BAA5",
"2X c #EABFA9",
"3X c #E8BDA7",
"4X c #EEC2AB",
"5X c #F0C3AC",
"6X c #ACB5C0",
"7X c #8CD2E5",
"8X c #89CEE0",
"9X c #C3C3C3",
"0X c #CBCBCB",
"qX c #D4D4D4",
"wX c #DCDCDC",
"eX c #E2E2E2",
"rX c #ECECEC",
"tX c #E8E7E7",
"yX c #F3F3F3",
"uX c #FEFEFE",
/* pixels */
"                                                                                          # #                                         ",
"                                                                                      % 5 / S.5                                       ",
"                                                                                    3 T C.P.U.C.D %                                   ",
"                                                                                  6 T S.I.T.U.U.D.U q 7                               ",
"                                                    @ #                       r H _ J.U.U.U.U.U.P.P.C./ T U U U Y ~ ! q               ",
"                                                  7 T / I e % O O O # O @ 7 H ` G.U.U.U.U.U.H.H.H.P.I.I.I.I.T.Y.P.Y.P.T .             ",
"                                                3 / G.P.C._ ` ^ ~ ~ ~ ~ ^ _ S.H.U.H.G.S.S.S.D.D.D.S.S.F.I.I.I.Y.Y.Y.H./ .             ",
"                                              = ~ D.P.P.P.U.P.H.H.H.G.G.H.U.U.T.G.S.D.D.G.H.S.` J.J.G.D.F.J.Y.Y.U.U.Y.H               ",
"                                            r ~ G.U.U.U.U.U.U.U.Y.Y.H.U.Y.T.G.C.G.I.I.I.U.G.R y.P C.U.U.P.P.U.U.U.U.D.0               ",
"                                        o 5 ` H.U.U.U.U.U.U.U.U.Y.Y.U.U.J.C.S.J.T.T.T.T.U.( f.M.v.A W ( D.U.U.U.U.U.V.@               ",
"                        O .       + O 3 ^ D.U.Y.U.U.U.U.U.U.U.U.U.U.P.D.C.H.U.U.T.G.^ P [ h.N.m.M.m.n.6._ Y.U.U.U.U.Y                 ",
"                        0 I G D D Y _ G.P.U.U.U.U.U.U.U.U.U.U.T.P.H.S.D.H.U.U.U.T.T.o.f.N.m.m.m.m.m.n.3.D.Y.U.U.U.V.@                 ",
"                        H P.P.P.G.F.U.U.U.U.U.U.U.U.U.U.U.U.U.J.D.S.H.U.U.U.U.U.T.U. .h.M.m.m.m.m.m.k.o.U.U.U.U.D.0                   ",
"                        7 B.P.P.U.S.H.U.U.U.U.U.U.U.U.U.U.J.D.F.S.U.U.U.U.U.U.U.U.U.D.*.k.M.m.m.m.b.3.C.U.P.P.S.Y O                   ",
"                        = D J.P.U.G.D.U.U.U.U.U.U.U.U.U.U.D.F.G.U.U.U.U.U.U.U.U.U.U.U...4.b.m.m.n.4...H.Y.H.B.U @                     ",
"                          5 ^ H.H.U.D.S.H.U.U.U.U.U.U.U.U.U.U.U.U.U.U.U.U.U.U.U.U.U.U.H.A.*.6.h.*. .H.S.) U 5 o                       ",
"                            7 ) P.P.Y.D.C.D.Y.Y.U.U.U.U.U.U.U.U.U.U.U.U.U.U.Y.Y.U.U.U.U.U.S.A. .S.V.Y a 6 * @ X                       ",
"                              q B.P.Y.Y.J.F.D.Y.U.U.U.U.U.U.U.U.U.U.U.Y.U.U.U.Y.U.U.U.U.U.S.V.! D 6 3 * * * * X                       ",
"                                5 B.P.P.U.H.D.D.U.U.Y.Y.U.U.U.U.U.U.Y.Y.U.Y.Y.Y.H.S.` I a 5 4 4 3 * * * * * * o                       ",
"                                  $ Y ) _ V.V.V.C.G.D.G.G.G.G.F.S.V._ ` ~ I D 0 3 $ $ * * * * * * * * * * * * X O                     ",
"                                    . @ @ @ @ @ @ @ @ @ @ @ @ @ @ @ @ * * * * * * * 3 * * * * * * * * * & @ * 4 * + O                 ",
"                                    + @ * * * * 3 * * * * * * * * * * * * * * * * * * * * * * * * * * & * t d d d i * o               ",
"                                      X * * * * * * * * * * * * * * * * * * * * * * * * * * & * * * 4 i d d d d d d d i * &           ",
"                                      + & & * * * * * * * * * * * * * * * * * * * * * * * * * * t f f f d d d d d d d d p 6 = o       ",
"                                      + 2 1 < , , # - % $ * @ * * * & @ * @ $ * * 3 4 4 6 i d d d d d d d d d d d d d d d d p 4 &     ",
"                                      + M N N B 2 &.5.5.<.v & 3 * * 3 4 4 4 4 6 p i d d d d d d d d d d d d d d d d d d d d f f 6 o   ",
"                                > C &.> B N N N 2.&X1X1X,X}.>.y i i t p f d d d d d d d d d d d d d d d d d d d d d d d d d d d a 4 + ",
"                              V z.&X*X}.,.M N Z x.4X4X4X5X4X-Xa.b y p p i p d d d d d d d d d d d d d d d d d d d d d d d d d d f f + ",
"                            &.{.c.z.<X4X-Xu.2 2.:X4X5X5X5X5X5X3X*Xl.n y p p i i i p d d d d d d d d d d d d d d d d d d f f i p f 4 + ",
"                          z  Xi.i.s.,.<X5X&X>.1.5X5X5X5X5X5X5X5X4X4X:Xc.&.y t d f a p i p i p f d d d d d d d f f p p p p p d t = o   ",
"                          >.{.x.<X5X&X5.5X5X<X<X5X5X5X5X5X5X5X5X4X4X5X5X4X-Xl.<.v u i p f f f i p p p i p p i i p p p i 4 * o X       ",
"                        l i.u.c.3X5X5X>.5X5X5X5X5X5X5X5X5X5X5X5X5X5X5X5X4X4X4Xx.&X%Xz.u.$.C $.$.] x ] [ ] ] b u * & @ + +             ",
"                v n :   V x.d.p.%X3X2X1.2X5X5X5X5X5X5X5X5X5X5X5X5X5X5X5X5X5X*Xl t.3X5X5Xx. X<X-Xx.V u.{.}.%Xc.1                       ",
"              O XXqX9.> V z.].oXd.&X*X1.3X5X5X5X5X5X5X5X5X5X5X5X5X5X5X5X5X5X}.. l -X5X5X|.x.1X5X&X, C 3X5X5X3X&.                      ",
"        =.9.j O eXuX9X$.< p.0XuXXXc.i.s.2X5X5X5X5X5X5X5X5X5X5X5X5X5X5X5X5X5X-X: V <X5X5X<Xa.{.2X<XV C <X5X5X5X}.l                     ",
"      #.OXqX`.j qXuXeXe.O -.yXyX9X].x.i.5X5X5X5X5X5X5X5X5X5X5X5X5X5X5X5X5X5X5X}.&X4X5X5X5X:Xz.x.5X&X&X5X5X5X5X5Xa.+                   ",
"      $.0XuXqX0.).uXeX`.: w.uXtXOX[.<Xi.;X2X5X5X5X5X5X5X5X5X5X5X5X5X5X5X5X5X5X5X5X5X5X5X5X5X:Xa.i.2X5X5X5X5X5X5X:X<                   ",
"    + v oXuXwX'.%.yXrXXXV ).uXeX]..X5X-X<X5X5X5X5X5X5X5X5X5X5X5X5X5X5X5X5X5X5X5X5X5X5X5X5X5X5X-Xs.{.2X5X5X5X5X5X5XC                   ",
"; 0.'.$._.yXtXwXh 9XyX0Xe.OXuXwXr.;X5X-X:X5X5X5X5X5X5X5X5X5X5X5X5X5X5X5X5X5X5X5X5X5X5X5X5X5X5X5X<Xt.1X5X5X5X5X5X5Xu.O                 ",
"; rXyXqX_.9XyXwX-.).uXqXXX0XrX+X<.t.>.> =X5X5X5X5X5X5X5X5X5X5X5X5X5X5X5X5X5X5X5X5X5X5X5X5X5X5X1Xt.z.5X5X5X5X5X5X5Xc.O                 ",
"- l.uXrXOX`.wXeXXX0.uXuXuXuXrX).-.0.e.< 1X4X4X4X5X5X5X5X5X5X5X5X5X5X5X5X5X4X5X5X5X5X5X5X5X<X2.1.*X5X5X5X5X5X5X5X5Xx.O                 ",
"  u OXyXtX'.9XyXwX+XuXuXuXuXyX0.-.%.m v >X4X5X4X5X5X5X5X5X5X5X5X5X5X5X5X4X|.4X5X5X5X5X5X5X3X5.<X5X5X5X4X5X5X5X5X5Xz.O                 ",
"    $.OXyXqXqXyXuXuXuXuXuXuXuX-.=.OXyXqXr.-X5X5X5X5X5X5X5X5X5X5X5X5X5X4X&Xi.4X5X5X5X5X5X5X5X&Xi.4X4X4X4X5X1X=X|.<Xi.O                 ",
"      $.9XuXuXuXuXuXuXuXuXuXrX_.+XyXrX0Xl.-X5X5X5X5X5X5X5X5X2X<X<X4X1X%Xp.;X5X5X5X5X5X5X5X5X5X5.x.4X4X4X;X[./.w.].<.O                 ",
"      : 9.yXuXuXuXuXuXuXyXeXtXqXyXyXqX`.p.2X4X4X5X5X5X5X5X5X3X%Xx. Xx.t.t.4X5X5X5X5X5X5X5X5X2Xl.6.4X4X:X6.} ~.^.!.[ x u               ",
"        r.rXuXuXuXuXuXyXeXrXuXuXrXwX`.h V -X5X4X5X5X5X5X5X5X2X<X|.x.}.*Xs.l.;X4X5X5X5X5X2X=Xz.a.:X4X5X*X8.+.E.8.} 8.8.} [ W           ",
"        0.tXuXuXuXuXuXrXrXuXuXuXwX'.v   k i.4X5X5X5X5X5X5X5X5X5X5X5X5X5X<X}.s.i.}.-X;Xx.i.l.}.<X5X5X5X:Xw.Q.Q.+.R } !.^.^.~.{         ",
"        =.9XuXuXuXuXuXuXuXuXuXyX9X#.      V *X5X5X5X5X5X5X5X5X5X5X5X5X5X5X4X-X}.s.a.a.x.%X:X4X5X5X5X5X4X*Xw.+.Q.Q.+.8.7X7X7X!.c       ",
"          '.yXuXuXuXuXuXuXuXuXrX_.j       l 5.-X4X5X5X5X5X5X5X5X5X5X5X5X5X5X5X2X-X;X;X1X2X5X5X5X5X5X5X5X4X&X0.+.K.K.+.^.8X7X~.W       ",
"          j `.rXuXuXuXuXuXuXuX9Xn           > ,.3X4X5X5X5X5X5X5X5X5X5X5X5X5X5X5X2X2X2X5X5X5X5X5X5X5X5X5X4X4Xp.`.oX/.7.*.8.~.W.x       ",
"            O #.wXuXuXuXuXuX9X%.              : a.<X5X5X5X5X5X5X5X5X5X5X5X5X5X5X2X5X5X5X5X5X5X5X5X4X5X5X4X|.q.oXqXwXeXyXwX`.n 1 ;     ",
"                k w.$X6X#X$Xg #                 > >..X3X5X5X5X5X5X5X5X5X5X5X5X5X5X5X5X5X5X5X5X5X5X4X4X4X}.C j r.XX@X+XwXrXyX9.Q j     ",
"                O 0 ` / ~ ) ~ 7                     m z.:X2X5X5X5X5X5X5X5X5X5X5X5X5X5X5X5X5X5X5X5X5X<Xx.C #._.`.=.[ *.0XeXuXe.u       ",
"                  % B.J.G.D._ F 8                     < t.x.:X5X5X5X5X5X5X5X5X5X5X5X5X5X5X5X5X5X4X=Xi.C v ).+XeXtXw.9 `.wXuX3.O       ",
"                  . G ) ) ` ^ ^ Y 5                     + h r..X;X2X5X5X2X2X2X2X2X2X5X5X2X2X2X-Xx.<.m $.OX0XXX'.tXeX$.`.tXuX-.        ",
"                  3 _ V.V.C.G.P.Y.) +                 O q e V...O.;.u.s.{.;X1X2X2X1X:X&X.Xi.>.l $.'.9.-.'.'.qX0XqXuXwXwXuXuX9.        ",
"                O w Y.Y.Y.Y.Y.H.U.G.G X             + w V.! S.P.B.~ A.E.O.V %.$.%.C %.{ Q o.F F x `.e.oX0X,X'.qXyXuXuXuXuXuX).m       ",
"                O G U.U.Y.Y.U.U.U.U.D.I @       < S A P J.V.~ P.C.` F.B.U 8 H H a 6 0 G _ P.Y B.~ Q XXwXeXeXwXyXuXuXuXuXuXuXqX$.      ",
"                  0 Y.U.U.U.U.U.U.U.U.S./ I q z g.v.g.G I.J.! P.H.^ ` ! ) F H H K F e ~ D.Y._ B.G.R '.+X6XwXrXuXuXuXuXuXuXuXeX$.      ",
"                  o V.U.U.U.U.U.U.U.U.U.Y.Y.D.' c x ( T.Y.I.T T.I.G.! ! S.B.8 E J K ^ G.B.G.G.G Y.' } oX).0XtXyXuXuXuXuXuXuXyX=.      ",
"                    w H.Y.U.U.U.U.U.U.U.U.U.U.U.Y.Y.U.U.I.D.~ J.D.F.D.G.I.I.5 3 * q ` F.} :.o.T ' G.' 0.oX0XeXyXuXuXuXuXuXuXyX=.      ",
"                    + Y S.U.U.U.U.U.U.U.U.U.U.U.Y.Y.H.C.) T D.C.~ ~ ~ I B.^ q G J L a :.b.M.k.B.H F.F.' R _.9XrXuXuXuXuXuXuXwX%.      ",
"                      5 ! S.U.U.U.U.U.U.U.U.U.U.U.H.V./ ` D.T.C.~ ^ ~ T V.w L L J J L $.k.M.k.C.B.^ D.J.B.R 7.9XuXuXuXuXuXuX0X]       ",
"                        3 Y S.U.U.U.U.U.U.U.U.U.S.^ a V.T.Y.T.S.) V.) ^ ~ e K L J J L E 3.j.9.I.G.e ! S.I.G.H 7.9XrXuXuXuXuX'.j       ",
"                          % U _ S.U.U.U.U.U.G.V.I = q Y.Y.U.U.S.`  .` Y a K J J K J J ~  . .Z.U.U.a @ G ) G._ H O.$X#X0X0XOX%.;       ",
"                              = w G ^ _ ` ~ L 5   + T U.U.U.U.H.C.` ^ D a I J J J J J D _ H.U.U.Y.~ @   = w U U U U K o.o.F O         ",
"                                    7 q q 5       # ~ U.U.U.U.U.H.S.) H K J J J J J J p / G.U.U.Y.` *       8 7 $ 5 5 3 r %           ",
"                                                  @ ^ P.U.U.U.U.U.U.C.H F K J J J J J a Y S.U.U.Y._ 5             @ o . +             ",
"                                                  O T P.U.U.U.U.U.U.H.` L J J J J J J a I S.U.U.P.B.q                                 ",
"                                                    w P.U.U.U.U.U.U.U.P.^ a J K J J J H V.Y.U.U.P._ 5                                 ",
"                                                    @ G.U.U.U.U.U.U.Y.Y.U.a L K J J a B.Y.Y.Y.U.P./ #                                 ",
"                                                      H H.U.U.U.U.Y.Y.P.P.S.F F J L ^ Y.Y.Y.Y.H.P.G                                   ",
"                                                      # ^ C.G.H.Y.Y.Y.Y.Y.Y.Z.e a T P.Y.Y.Y.Y.H.B.r                                   ",
"                                                      . * D ~ _ B.C.G.H.D.V...L 8 T C.C.B.B._ ^ 0                                     ",
"                                                      . @ @ $ 0 G I Y ~ R v u u 1 j P H D H 0 $ .                                     ",
"                                                      . I ~ G w H 0 o o S 2 O o > N M @ $ I D 5 X                                     ",
"                                                      . C.H.C._ I U T T W 2 1 < 1 z c L e U ` G +                                     ",
"                                                      @ H.U.U.G.C.C.G.G.Z.o.( u R ( ! ` V.C.G.U O                                     ",
"                                                      3 U.U.U.U.U.U.Y.I.P.J.G.q ) T ^ D.U.U.Y.! +                                     ",
"                                                      G U.U.U.U.U.T.Y.I.I._ I r Y C.T.Y.U.U.U.^ +                                     ",
"                                                      ^ P.Y.Y.U.U.U.U.U.U.D F.I.S.P.P.P.U.U.U.) O                                     ",
"                                                    @ S.P.P.U.U.U.U.U.U.P.G S.P.S.P.P.P.U.U.U.B.X                                     ",
"                                                  # F P.U.U.U.U.U.U.U.U.P.D ~ I.S.P.Y.Y.U.U.P.D.0                                     ",
"                                                  e _ P.U.U.U.U.U.U.U.U.P.w 5 P.G.P.Y.Y.U.U.Y.U.B.3                                   ",
"                                                0 _ H.U.U.U.U.U.U.U.U.U.P.0 @ J.S.H.U.U.U.U.Y.T.P.T 3                                 ",
"                                            # e C.P.U.U.U.U.U.U.U.U.U.U.P.U U J.C.P.U.U.U.U.T.Y.P.G._ D #                             ",
"                                          % w _ H.P.U.U.U.U.U.U.U.U.Y.Y.Y._ Y U.F.T.T.U.U.T.U.Y.T.I.D.^ 3 O                           ",
"                                        O 0 _ H.U.U.U.U.U.U.U.U.U.U.U.P.P.D.e G.G.I.U.U.U.I.D.B.^ Y H a = O -                         ",
"                                          = D ^ D.P.P.P.U.U.U.U.U.U.U.U.U.P.~ H ~ / ! Y K K L L L s p i t 4 4 * * @ +                 ",
"                                        O * p i 6 D ~ C.G.P.U.U.U.P.U.P.G.V.^ @ 6 i p f f d d d f f d d f d d d d d t @               ",
"                                  O + @ 4 f d d d s i 4 6 6 w D D D a 6 6 6 3 4 d d d d f f d d f d d d d d d d d d d t &             ",
"                                & 3 f d d d d d d d f d d f f f p f d d d d f * d d d d d f d d f L d d d d d d d d d d 4 o           ",
"                              O 4 f d d d d d d d d d d d d d d d d d d d d f * d d d d d d d d d d d d d d d d d d d d 6 O           ",
"                              & t d d d d d d d d d d d d d d d d d d d d d f = f d f d d d d d d d d d d d d d d d d p 7 -           ",
"                            O * p d d d d d d L d d d d d d d d d d d d d d p & y p p g p p y t i i i p f f d d i t g g j :           ",
"                            h x u t p d d d d d d d d d d d d p 6 y 4 4 4 7 u , k h h h h h c ] [ b c x x u u x c b n $.n >           ",
"                            : n ] v x u 7 7 t t t t t t 4 y u u b b b b b n b O > : ; > > > : h v n #.#.#.#.#.%.$.$.m h :             ",
"                            ; h j n #.] n ] Q ] ] ] ] ] ] n n n m j k k k k : -                 ; : : h h h k h u : :                 ",
"                                : : : j m #.$.=.=.=.=.-.-.=.C j :                                                                     ",
"                                        o O - O - O , - - o o                                                                         "
};
