/* XPM */
static char *result[] = {
/* columns rows colors chars-per-pixel */
"100 73 220 2 ",
"   c #3F2618",
".  c #552305",
"X  c #5C2302",
"o  c #54260B",
"O  c #592609",
"+  c #53280E",
"@  c #5C2A0C",
"#  c #5E2906",
"$  c #4F2A14",
"%  c #4C2915",
"&  c #522B13",
"*  c #5B2E12",
"=  c #522E19",
"-  c #5D3116",
";  c #55321B",
":  c #5B341B",
">  c #5E391C",
",  c #553017",
"<  c #5F300F",
"1  c #612603",
"2  c #642A06",
"3  c #642C0A",
"4  c #692E09",
"5  c #6C330C",
"6  c #65310E",
"7  c #70370E",
"8  c #71380F",
"9  c #632F11",
"0  c #643416",
"q  c #6B3614",
"w  c #6C3815",
"e  c #63351A",
"r  c #6A371A",
"t  c #643C1D",
"y  c #6A3D1C",
"u  c #653917",
"i  c #733B13",
"p  c #723E1C",
"a  c #733713",
"s  c #5D3B24",
"d  c #5D3D2B",
"f  c #573620",
"g  c #4B372C",
"h  c #643D23",
"j  c #6A3D24",
"k  c #633B25",
"l  c #713E23",
"z  c #6C421E",
"x  c #67411F",
"c  c #764115",
"v  c #794416",
"b  c #74441C",
"n  c #7B461A",
"m  c #76491F",
"M  c #7D4B1C",
"N  c #5B4639",
"B  c #5C402F",
"V  c #6B4323",
"C  c #66442A",
"Z  c #6B442B",
"A  c #6D4B2C",
"S  c #664627",
"D  c #744422",
"F  c #754A23",
"G  c #7C4C22",
"H  c #74422B",
"J  c #724C2C",
"K  c #7C4D2B",
"L  c #794724",
"P  c #78522D",
"I  c #6C4A33",
"U  c #6A4936",
"Y  c #754C33",
"T  c #724C39",
"R  c #7E4D35",
"E  c #725333",
"W  c #7B5433",
"Q  c #7C5A33",
"!  c #7B5C3B",
"~  c #78543A",
"^  c #6F5434",
"/  c #7F613C",
"(  c #454241",
")  c #524944",
"_  c #5A534B",
"`  c #7D5A44",
"'  c #7A5946",
"]  c #695141",
"[  c #7C624D",
"{  c #7D685A",
"}  c #814E1E",
"|  c #82501F",
" . c #804F29",
".. c #835223",
"X. c #82542C",
"o. c #865A2D",
"O. c #895B2A",
"+. c #804E33",
"@. c #845435",
"#. c #835D35",
"$. c #895B3A",
"%. c #84583A",
"&. c #8D622F",
"*. c #84633C",
"=. c #8B6738",
"-. c #936D3C",
";. c #926733",
":. c #97733E",
">. c #815C4B",
",. c #845942",
"<. c #845F50",
"1. c #846B44",
"2. c #896D43",
"3. c #8C6548",
"4. c #926948",
"5. c #8D744B",
"6. c #8F7549",
"7. c #947344",
"8. c #9D7A45",
"9. c #927A4D",
"0. c #9C7D4C",
"q. c #94764A",
"w. c #836653",
"e. c #8C6B55",
"r. c #8C6B5B",
"t. c #866757",
"y. c #8C7456",
"u. c #947E51",
"i. c #9B7958",
"p. c #956C50",
"a. c #A17D46",
"s. c #917464",
"d. c #957B6C",
"f. c #9D7D67",
"g. c #927E71",
"h. c #897669",
"j. c #A17E68",
"k. c #9E814C",
"l. c #968254",
"z. c #9C8453",
"x. c #9B875A",
"c. c #A4844D",
"v. c #A6854B",
"b. c #A48954",
"n. c #A98D52",
"m. c #A28D5B",
"M. c #A38652",
"N. c #A3925E",
"B. c #AC945C",
"V. c #AE9257",
"C. c #B39B5E",
"Z. c #B1975A",
"A. c #9D8E63",
"S. c #9E8478",
"D. c #8B8165",
"F. c #A4826D",
"G. c #A49363",
"H. c #AC9A64",
"J. c #A99867",
"K. c #B59D61",
"L. c #A58C7C",
"P. c #A88A7A",
"I. c #A8917F",
"U. c #ADA16C",
"Y. c #BAA566",
"T. c #B3A56C",
"R. c #BDAA6C",
"E. c #B7AA6F",
"W. c #B5AA72",
"Q. c #B6AC74",
"!. c #BDB275",
"~. c #BEB67B",
"^. c #C2AE6C",
"/. c #C3B374",
"(. c #C9BA75",
"). c #C1B679",
"_. c #C4BA7B",
"`. c #CABF7E",
"'. c #C7B977",
"]. c #CEC37D",
"[. c #998980",
"{. c #AA9488",
"}. c #B09D92",
"|. c #AE978A",
" X c #B8A497",
".X c #B9B280",
"XX c #BBADA2",
"oX c #C7BD80",
"OX c #C9BBB5",
"+X c #CCC583",
"@X c #CDCA8A",
"#X c #CBC685",
"$X c #D4CC86",
"%X c #D4CE8A",
"&X c #D5D18C",
"*X c #DAD58D",
"=X c #DED98F",
"-X c #D4D492",
";X c #D9D691",
":X c #DEDC93",
">X c #D0CD91",
",X c #E0DE93",
"<X c #E0DB8F",
"1X c #DEE199",
"2X c #E3E296",
"3X c #E4E599",
"4X c #E7E99C",
"5X c #EAEC9D",
"6X c #EEF19F",
"7X c #CFC2BA",
"8X c #EEF2A2",
"9X c #F1F5A4",
"0X c #F4FAA6",
"qX c #F6FDA9",
"wX c #ECEFA0",
"eX c #D6CAC5",
"rX c #D7CECA",
"tX c #E2D9D6",
"yX c #EBE6E5",
"uX c None",
/* pixels */
"uXuXuXuXuXuXuXuXuXuXuXuXuXuXuXuXuXuXuXuXuXuXuXuXuXuXuXuXuXuXuXuXuXuXuXuXuXuXuXuXuXuXuXuXuXuXuXuXuXuXuXuXuXuXuXuXuXuXuXuXuXuXuXuXuXuXuXuXuXuXuXuXuXuXuXuXuXuXuXuXuXuXuXuXuXuXuXuXuXuXuXuXuXuXuXuXuXuXuXuX",
"uXuXuXuXuXuXuXuXuXuXuXuXuXuXuXuXuXuXuXuXuXuXuXuXuXuXuXuXuXuXuXuXuXuXuXuXuXuXuXuXuXuXuXuXuXuXuXuXuXuXuXuXuXuXuXuXeXrXtXuXuXuXuXuXuXuXuXuXuXuXuXuXuXuXuXuXuXuXuXuXuXuXuXuXuXuXuXuXuXuXuXuXuXuXuXuXuXuXuXuX",
"uXuXuXuXuXuXuXuXuXuXuXuXuXuXuXuXuXuXuXuXuXuXuXuXuXuXuXuXuXuXuXuXuXuXuXuXuXuXuXuXuXuXuXuXuXuXuXuXuXuXuXuXuXuXuXuXOXeXeXuXuXuXuXuXuXuXuXuXuXuXuXuXuXuXuXuXuXuXuXuXuXuXuXuXuXuXuXuXuXuXuXuXuXuXuXuXuXuXuXuX",
"uXuXuXuXuXuXuXuXuXuXuXuXuXuXuXuXuXuXuXuXuXuXuXuXuXuXuXuXuXuXuXuXuXuXuXuXuXuXuXuXuXuXuXuXuXuXuXuXuXuXuXuXH K L h k Z @.$.@.,.3.f.uXuXuXuXuXuXuXuXuXuXuXuXuXuXuXuXuXuXuXuXuXuXuXuXuXuXuXuXuXuXuXuXuXuXuXuX",
"uXuXuXuXuXuXuXuXuXuXuXuXuXuXuXuXuXuXuXuXuXuXuXuXuXuXuXuXuXuXuXuXuXuXuXuXuXuXuXuXuXuXuXuXuXuXuXuXuXuXuXuXD n D : ; t } v a 2 X X o = q 5 uXuXuXuXuXuXuXuXuXuXuXuXuXuXuXuXuXuXuXuXuXuXuXuXuXuXuXuXuXuXuXuX",
"uXuXuXuXuXuXuXuXuXuXuXuXuXuXuXuXuXuXuXuXuXuXuXuXuXuXuXuXuXuXuXuXuXuXuXuXuXuXuXuXuXuXuXuXuXuXuXuXuXuXuXuXL b b : ; u ..M 8 2 X X & = a w uXuXuXuXuXuXuXuXuXuXuXuXuXuXuXuXuXuXuXuXuXuXuXuXuXuXuXuXuXuXuXuX",
"uXuXuXuXuXuXuXuXuXuXuXuXuXuXuXuXuXuXuXuXuXuXuXuXuXuXuXOX7XuXuXuXuXuXuXuXuXuXuXuXuXuXuXuXuXuXuXuXuXuXuXeXj.n p : ; t } n 7 1 X X + = i a uXuXuXuXuXuXuXuXuXuXuXuXuXuXuXuXuXuXuXuXuXuXuXuXuXuXuXuXuXuXuXuX",
"uXuXuXuXuXuXuXuXuXuXuXuXuXuXuXuXuXuXuXuXuXuXuXuXs.r.%.D p r.uXuXuXuXuXuXuXuXuXuXuXuXuXuXuXuXuXuXuXuXuXeXi.p D : ; x } n 7 1 X X & = a i uXuXuXuXuXuXuXuXuXuXuXuXuXuXuXuXuXuXuXuXuXuXuXuXuXuXuXuXuXuXuXuX",
"uXuXuXuXuXuXuXuXuXuXuXuXuXuXuXuXuXuXuXuXuXuX{.' f - - * > U uXuXuXuXuXuXuXuXuXuXuXuXuXuXuXuXuXuXuXuXuXOXi.b z : ; z | n 7 1 X X + = a l uXuXuXuXuXuXuXuXuXuXuXuXuXuXuXuXuXuXuXuXuXuXuXuXuXuXuXuXuXuXuXuX",
"uXuXuXuXuXuXuXuXuXuXuXuXuXuXuXuXuXuXuXuXuXt.k o + + + + & % OXuXuXuXuXuXuXuXuXuXuXuXuXuXuXuXuXuXuXuXuX}.3.n z ; ; z | v 5 1 X X % : a %.uXuXuXuXuXuXuXuXuXuXuXuXuXuXuXuXuXuXuXuXuXuXuXuXuXuXuXuXuXuXuXuX",
"uXuXuXuXuXuXuXuXuXuXuXuXuXuXuXuXuXuXuXuXuXX X X 1 X X X X : eXuXuXuXuXuXuXuXuXuXuXuXuXuXuXuXuXuXuXuXuXj.$.b z ; ; z | v 5 X X O + : i l uXuXuXuXuXuXuXuXuXuXuXuXuXuXuXuXuXuXuXuXuXuXuXuXuXuXuXuXuXuXuXuX",
"uXuXuXuXuXuXuXuXuXuXuXuXuXuXuXuXuXuXd.` q 1 1 1 1 1 1 X X j }.uXuXuXuXuXuXuXuXuXuXuXuXuXuXuXuXuXuXuXuX,.K i u & , u n w 3 X X . $ & 8 0 uXuXuXuXuXuXuXuXuXuXuXuXuXuXuXuXuXuXuXuXuXuXuXuXuXuXuXuXuXuXuXuX",
"uXuXuXuXuXuXuXuXuXuXuXuXuXuXuXuXuXuXm i 8 8 8 5 4 4 5 4 5 5 w D l p u 4 3 2 2 3 3 9 9 0 q 0 w r r r r 0 # O X . . O # # X . . . . o # @ s.S.S.{.|.|.}. X X X{.uXuXuXuXuXuXuXuXuXuXuXuXuXuXuXuXuXuXuXuXuX",
"uXuXuXuXuXuXuXuXuXuXuXuXuXuXuXuXuXX...M M M M M } n i } v v v c c i c 8 8 q 7 7 5 5 5 4 4 4 4 2 4 2 2 2 1 1 X 1 X X X X o % % . X X X X X X . X . X O O @ @ * 0 e e e e h k j k C U U T ' ' { uXuXuXuXuX",
"uXuXuXuXuXuXuXuXuXuXuXuXuXuXuXg.A z z b m m m m F G } ..:.v.8.;...M M M } ....O.n M v v i } i i v i a a 8 8 7 7 5 5 5 - g ( ( % 2 2 2 2 1 1 1 1 1 X 1 1 X 1 1 X X X X 1 X X X X X . X . . O . uXuXuXuXuX",
"uXuXuXuXuXuXuXuXuXuXuXuXuXuX] f ; ; ; ; ; : : : > > e Q ].4X=X].Y.n.n.B.Z.b.C.V.G M M G &.n.a.O.v.a.O.} } &.a.n.n.-.G S ^ [ h.Q c i c ..i 5 i ..X.5 5 b o.i 2 4 q q 2 1 2 1 1 2 3 1 1 1 X 1 X r.uXuXuXuX",
"uXuXuXuXuXuXuXuXuXuXuXuXuXuXJ y t t > > > > : : : : : 1.).!._.=X0X4X1X4X-XU.6X_.> > > x 6.,XE.2.$X_.*.m 8./.$X;X4XR.&.m m -.$XR.G M 8.(.;.M =./.K.v ..V.].:.v ..V.8.c 8 8 5 n 7.o.q 5 4 4 4 4 r.d.uXuXuX",
"uXuXuXuXuXuXuXuXuXuXuXuXuXuXb b b b b b b z b z z z y J *.P W T.0X].m.B.l.5.0X~.> , , : 9.3XU.5.4XR.S E ~.#Xl.5.m.1.x t x 6.6X,XF V /.0Xn.m k.wXC.M ;.,X5XY...c.5X(.&.M M M n.$Xv.M v n c v i 3.e.uXuXuX",
"uXuXuXuXuXuXuXuXuXuXs.h O * 3 q q q q q q u q u z V z A F J y z.3Xx.x z V =.1XW.z x x x 7.*XH.9.1XE.J x.:Xm.x : > : ; : ; S 1X0X^ ; %XqXH.> N.5X1.x l.6X8X+XQ 9.3X=X0.m m o.(.$X-.G M M M M M i.f.uXuXuX",
"uXuXuXuXuXuXuXuXJ L W r 3 3 2 # X X # # # O # # @ 6 0 u y e 3 2.3Xq.< < - Q :X+Xm.l.l.l.U.&XN.2.+XJ.^ N.&Xl.B ; ; : : , , , E.&X^ f Q.@XQ.U A.~.A S U.%X~.*X2.E !.5XE.^ > 2.+XG.S t > t t V y.L.uXuXuXuX",
"uXuXuXuXuXuXw.A F b c c c c i i c 8 7 7 5 5 6 5 4 4 3 3 2 2 1 7.9X7.# X # K 8X3X&X@X#X@X;X1Xz./ #XN.h 9.&X@XW.N.l.^ > & , & 9.&X9.A @X-X-X~ oXJ.C [ -XJ.x.-XG.C 5.@X>Xy.U A..X[ d B B d N s uXuXuXuXuXuX",
"uXuXuXuXh.s Z > t t y x y z z z z z b b n n n c c c c c c i i a.9X8.8 5 5 X.0X'.8.8.8.k.R.3Xb.-.=Xn.6 G R.2X8X5X1X].P & + o P 5X!.p.3X4X8X9.1Xu.x l.;X/ 1.@X~.J A J.1X~.x.oXG.Z h k C V C `  XuXuXuXuXuX",
"uXuX[ ` W y y y y y t y y t t t u x t t t t t t t t y u x y y z.8X0.b c b =.8XK.n b n G c.:XB.8.=XB.i i O.8.v.Y.,X9XA.U N N > *X,XoX).!.qXoX,XD V +X&X*.2.+X%X$.@ *.@X4X=X_.*.0 * * * * > V [ uXuXuXuXuX",
"uXuXuXuXuXuXuXuXuXuXW %.! ~ W J A A Z S t t t > t t t t t t : G.8X2.> > t 1.8XH.t t y V 0.;XC.k.:XC.m m n m G O.R.6XU._ ( ) x _.8X8XM.M.qX4X+Xi 7.9X5X$X&X4X6XH.4 0 M.2X3Xc.0 O O O O O O O O uXuXuXuXuX",
"uXuXuXuXuXuXuXuXuX{ { { { w.w.w.` [ [ >.' ' ` ~ U j k e r 0 e 0.W.Q - u t / _.9.e > > > 2.~.9.6.&XG.9.=.t > t S !.6Xu.s f B x n.8X0X-.7.qX0XY...'.2X(.^.Y.^.<X].X.i =.$X$X&.5 2 2 2 1 # 2 X X w.s.uXuXuX",
"uXuXuXuXuXuXo o * s k s k s s d d k d d d d k d s f : , , - 0 T.%XQ q r y 0.*X0.w w q p 0.&Xc.q.#XQ.~.W.! t t / !.!.P > : : : A &X+XS A :X;X9.2.#X9.P J J P N.;Xb.b =._.'.=.b c c c c i c i 8 y.s.uXuXuX",
"uXuXuXuXuXuXI 3 . X O . O O o . o o o o + + o o + & & & & & = oX2XE ; = s T.3X5.- - - V B.2Xz.m.1X).+X4X].K.Z.].&Xk.n w w u w w ].oXz D &X).*./._.z - e 0 e 2.%XW.^ / ~.U.A : > t t t y z P 3. XXXuXuXuX",
"uXuXuXuXuXuXuXuXr X X X X X X X X X X X X X X X . X O O . O O b.7.- o + * 9.9.> & & & > 9.U.E l.W./ [ !.:X3X3X@Xl.S s s e 0 q u +XB.w i &X/.7.3XV.w a i i i o.+X$X-.7.&X!.P 0 q 0 0 - I d.XXeXyXyXuXuXuX",
"uXuXuXuXuXuXuXuXuXY 1 1 1 1 1 X 1 X 1 1 X X 1 1 X X 1 X X X X q 3 X X X X 6 3 O X O . X 0 y # u x + * x Q *.=.J = g ) _ N = = & [ S * , 2.! E G.J 0 - e 0 0 H b.B.K @.H.k.M w a a a a p @.,.p.{.|.uXuXuX",
"uXuXuXuXuXuXuXuXuXuXe.5 5 5 5 4 2 2 2 4 2 2 2 2 1 1 1 1 1 X X 1 X X X 1 X X 1 X X X X X X X X X X X X X X 1 @ # X o %   % o o o - + + + * = * : = & & & & = ; s s ; : s > : = : - - : e r 0 r d.S.uXuXuX",
"uXuXuXuXuXuXuXuXuXuXuXuXG v v v v v i 8 i 8 8 8 7 7 7 5 4 4 4 5 2 4 4 2 2 2 1 1 1 1 1 1 X 1 X X 1 X X X X X X X X X X . X X X X X X X X X X X O X X . O . o o o o + o o + + & + & & & & & & & [.}.uXuXuX",
"uXuXuXuXuXuXuXuXuXuXuXuXuXuX| | | | | | } } } } } n v n } L uXuXuXuXuXuXuXuXuXuXuXuXuXuXuXuXuXuXuXuXr u 0 * + * q q 4 . . . . o O 3 e s.s.r.r.t.w.>.` ' ~ Y Y ` t.t.' j h e e e * * * & o o : uXuXuXuXuX",
"uXuXuXuXuXuXuXuXuXuXuXuXuXuX3.Z z F b F m F M G G G G G ..X.uXuXuXuXuXuXuXuXuXuXuXuXuXuXuXuXuXuXuXuXL n b t = > m M c 2 X X o $ 0 a uXuXuXuXuXuXuXuXuXuXuXuXuXuXuXuXuXuXuXuXuXuXuXuXuXuXuXuXuXuXuXuXuXuX",
"uXuXuXuXuXuXuXuXuXuXuXuXuXuXuXf ; ; ; ; > : > > > x x h x T uXuXuXuXuXuXuXuXuXuXuXuXuXuXuXuXuXuXuXuXb b b > = > G M 8 2 X X + $ r i uXuXuXuXuXuXuXuXuXuXuXuXuXuXuXuXuXuXuXuXuXuXuXuXuXuXuXuXuXuXuXuXuXuX",
"uXuXuXuXuXuXuXuXuXuXuXuXuXuXuXuXU f ; ; = = = = , = = = ; d uXuXuXuXuXuXuXuXuXuXuXuXuXuXuXuXuXuXuXuXi b D > ; t M M 8 4 X X o = w a t.uXuXuXuXuXuXuXuXuXuXuXuXuXuXuXuXuXuXuXuXuXuXuXuXuXuXuXuXuXuXuXuXuX",
"uXuXuXuXuXuXuXuXuXuXuXuXuXuXuXuXuXD.[ S t x t t > > > > : N uXuXuXuXuXuXuXuXuXuXuXuXuXuXuXuXuXuXuXuXa v z > = t G } 8 2 X X + = r a ~ uXuXuXuXuXuXuXuXuXuXuXuXuXuXuXuXuXuXuXuXuXuXuXuXuXuXuXuXuXuXuXuXuX",
"uXuXuXuXuXuXuXuXuXuXuXuXuXuXuXuXuXuXuXuXL.y.K M m m m m H uXuXuXuXuXuXuXuXuXuXuXuXuXuXuXuXuXuXuXuXuXp v D > = x M } 7 2 X X + & w a >.uXuXuXuXuXuXuXuXuXuXuXuXuXuXuXuXuXuXuXuXuXuXuXuXuXuXuXuXuXuXuXuXuX",
"uXuXuXuXuXuXuXuXuXuXuXuXuXuXuXuXuXuXuXuXuXuXuXL.I.{.uXuXuXuXuXuXuXuXuXuXuXuXuXuXuXuXuXuXuXuXuXuXuXuXL n b : ; y } M 7 2 X X + ; w w w.uXuXuXuXuXuXuXuXuXuXuXuXuXuXuXuXuXuXuXuXuXuXuXuXuXuXuXuXuXuXuXuXuX",
"uXuXuXuXuXuXuXuXuXuXuXuXuXuXuXuXuXuXuXuXuXuXuXuXuXuXuXuXuXuXuXuXuXuXuXuXuXuXuXuXuXuXuXuXuXuXuXuXuXuX$.K y : ; z M M 5 1 X . + = a r r.uXuXuXuXuXuXuXuXuXuXuXuXuXuXuXuXuXuXuXuXuXuXuXuXuXuXuXuXuXuXuXuXuX",
"uXuXuXuXuXuXuXuXuXuXuXuXuXuXuXuXuXuXuXuXuXuXuXuXuXuXuXuXuXuXuXuXuXuXuXuXuXuXuXuXuXuXuXuXuXuXuXuXuXuXP.G z : ; z } n 5 1 X X + ; a a d.uXuXuXuXuXuXuXuXuXuXuXuXuXuXuXuXuXuXuXuXuXuXuXuXuXuXuXuXuXuXuXuXuX",
"uXuXuXuXuXuXuXuXuXuXuXuXuXuXuXuXuXuXuXuXuXuXuXuXuXuXuXuXuXuXuXuXuXuXuXuXuXuXuXuXuXuXuXuXuXuXuXuXuXuX3.b z > ; z } v 5 1 X X + = a r g.uXuXuXuXuXuXuXuXuXuXuXuXuXuXuXuXuXuXuXuXuXuXuXuXuXuXuXuXuXuXuXuXuX",
"uXuXuXuXuXuXuXuXuXuXuXuXuXuXuXuXuXuXuXuXuXuXuXuXuXuXuXuXuXuXuXuXuXuXuXuXuXuXuXuXuXuXuXuXuXuXuXuXuXuX%.n z ; ; z | v 5 1 X X % : a q {.uXuXuXuXuXuXuXuXuXuXuXuXuXuXuXuXuXuXuXuXuXuXuXuXuXuXuXuXuXuXuXuXuX",
"uXuXuXuXuXuXuXuXuXuXuXuXuXuXuXuXuXuXuXuXuXuXuXuXuXuXuXuXuXuXuXuXuXuXuXuXuXuXuXuXuXuXuXuXuXuXuXuXuXuXX.b x ; ; m | v 5 1 X O % * i 0 |.uXuXuXuXuXuXuXuXuXuXuXuXuXuXuXuXuXuXuXuXuXuXuXuXuXuXuXuXuXuXuXuXuX",
"uXuXuXuXuXuXuXuXuXuXuXuXuXuXuXuXuXuXuXuXuXuXuXuXuXuXuXuXuXuXuXuXuXuXuXuXuXuXuXuXuXuXuXuXuXuXuXuXuXuXK b y ; ; m M v 4 X X . % e i 0 uXuXuXuXuXuXuXuXuXuXuXuXuXuXuXuXuXuXuXuXuXuXuXuXuXuXuXuXuXuXuXuXuXuX",
"uXuXuXuXuXuXuXuXuXuXuXuXuXuXuXuXuXuXuXuXuXuXuXuXuXuXuXuXuXuXuXuXuXuXuXuXuXuXuXuXuXuXuXuXuXuXuXuXuXuXK n y ; ; m } v 2 X X . & e a 0 uXuXuXuXuXuXuXuXuXuXuXuXuXuXuXuXuXuXuXuXuXuXuXuXuXuXuXuXuXuXuXuXuXuX",
"uXuXuXuXuXuXuXuXuXuXuXuXuXuXuXuXuXuXuXuXuXuXuXuXuXuXuXuXuXuXuXuXuXuXuXuXuXuXuXuXuXuXuXuXuXuXuXuXuXuXK b h ; : F } i 4 X X . & 0 a e uXuXuXuXuXuXuXuXuXuXuXuXuXuXuXuXuXuXuXuXuXuXuXuXuXuXuXuXuXuXuXuXuXuX",
"uXuXuXuXuXuXuXuXuXuXuXuXuXuXuXuXuXuXuXuXuXuXuXuXuXuXuXuXuXuXuXuXuXuXuXuXuXuXuXuXuXuXuXuXuXuXuXuXuXuX .b y = > M } i 4 1 X o % 0 i 0 uXuXuXuXuXuXuXuXuXuXuXuXuXuXuXuXuXuXuXuXuXuXuXuXuXuXuXuXuXuXuXuXuXuX",
"uXuXuXuXuXuXuXuXuXuXuXuXuXuXuXuXuXuXuXuXuXuXuXuXuXuXuXuXuXuXuXuXuXuXuXuXuXuXuXuXuXuXuXuXuXuXuXuXuXuX .D t ; > M | i 3 X X . = e i k uXuXuXuXuXuXuXuXuXuXuXuXuXuXuXuXuXuXuXuXuXuXuXuXuXuXuXuXuXuXuXuXuXuX",
"uXuXuXuXuXuXuXuXuXuXuXuXuXuXuXuXuXuXuXuXuXuXuXuXuXuXuXuXuXuXuXuXuXuXuXuXuXuXuXuXuXuXuXuXuXuXuXuXuXuXG b > ; > G M c 2 1 X o & u i j uXuXuXuXuXuXuXuXuXuXuXuXuXuXuXuXuXuXuXuXuXuXuXuXuXuXuXuXuXuXuXuXuXuX",
"uXuXuXuXuXuXuXuXuXuXuXuXuXuXuXuXuXuXuXuXuXuXuXuXuXuXuXuXuXuXuXuXuXuXuXuXuXuXuXuXuXuXuXuXuXuXuXuXuXuXb D > = > M M 8 1 X X o = w a j uXuXuXuXuXuXuXuXuXuXuXuXuXuXuXuXuXuXuXuXuXuXuXuXuXuXuXuXuXuXuXuXuXuX",
"uXuXuXuXuXuXuXuXuXuXuXuXuXuXuXuXuXuXuXuXuXuXuXuXuXuXuXuXuXuXuXuXuXuXuXuXuXuXuXuXuXuXuXuXuXuXuXuXuXuXi D > ; > G } 8 2 1 X o = r a I uXuXuXuXuXuXuXuXuXuXuXuXuXuXuXuXuXuXuXuXuXuXuXuXuXuXuXuXuXuXuXuXuXuX",
"uXuXuXuXuXuXuXuXuXuXuXuXuXuXuXuXuXuXuXuXuXuXuXuXuXuXuXuXuXuXuXuXuXuXuXuXuXuXuXuXuXuXuXuXuXuXuXuXuXuXb b > ; x M v 8 2 1 X o & q w >.uXuXuXuXuXuXuXuXuXuXuXuXuXuXuXuXuXuXuXuXuXuXuXuXuXuXuXuXuXuXuXuXuXuX",
"uXuXuXuXuXuXuXuXuXuXuXuXuXuXuXuXuXuXuXuXuXuXuXuXuXuXuXuXuXuXuXuXuXuXuXuXuXuXuXuXuXuXuXuXuXuXuXuXuXuXv b : ; x M } 8 1 X X o = w a P.uXuXuXuXuXuXuXuXuXuXuXuXuXuXuXuXuXuXuXuXuXuXuXuXuXuXuXuXuXuXuXuXuXuX",
"uXuXuXuXuXuXuXuXuXuXuXuXuXuXuXuXuXuXuXuXuXuXuXuXuXuXuXuXuXuXuXuXuXuXuXuXuXuXuXuXuXuXuXuXuXuXuXuXuXuXb V : ; V M } 7 1 X O + = i q P.uXuXuXuXuXuXuXuXuXuXuXuXuXuXuXuXuXuXuXuXuXuXuXuXuXuXuXuXuXuXuXuXuXuX",
"uXuXuXuXuXuXuXuXuXuXuXuXuXuXuXuXuXuXuXuXuXuXuXuXuXuXuXuXuXuXuXuXuXuXuXuXuXuXuXuXuXuXuXuXuXuXuXuXuX$.n b : ; V G i 7 1 X . + = i q t.uXuXuXuXuXuXuXuXuXuXuXuXuXuXuXuXuXuXuXuXuXuXuXuXuXuXuXuXuXuXuXuXuXuX",
"uXuXuXuXuXuXuXuXuXuXuXuXuXuXuXuXuXuXuXuXuXuXuXuXuXuXuXuXuXuXuXuXuXuXuXuXuXuXuXuXuXuXuXuXuXuXuXuXuXp.b z : ; z M } 7 1 1 . + : i q ' uXuXuXuXuXuXuXuXuXuXuXuXuXuXuXuXuXuXuXuXuXuXuXuXuXuXuXuXuXuXuXuXuXuX",
"uXuXuXuXuXuXuXuXuXuXuXuXuXuXuXuXuXuXuXuXuXuXuXuXuXuXuXuXuXuXuXuXuXuXuXuXuXuXuXuXuXuXuXuXuXuXuXuXuX3.n z : ; z M i 5 1 X X + ; a 0 >.uXuXuXuXuXuXuXuXuXuXuXuXuXuXuXuXuXuXuXuXuXuXuXuXuXuXuXuXuXuXuXuXuXuX",
"uXuXuXuXuXuXuXuXuXuXuXuXuXuXuXuXuXuXuXuXuXuXuXuXuXuXuXuXuXuXuXuXuXuXuXuXuXuXuXuXuXuXuXuXuXuXuXuXuX3.b y ; ; m G v 5 1 X X + : a q P.uXuXuXuXuXuXuXuXuXuXuXuXuXuXuXuXuXuXuXuXuXuXuXuXuXuXuXuXuXuXuXuXuXuX",
"uXuXuXuXuXuXuXuXuXuXuXuXuXuXuXuXuXuXuXuXuXuXuXuXuXuXuXuXuXuXuXuXuXuXuXuXuXuXuXuXuXuXuXuXuXuXuXuXuX$.m z ; : b M i 4 1 X . $ e a r OXuXuXuXuXuXuXuXuXuXuXuXuXuXuXuXuXuXuXuXuXuXuXuXuXuXuXuXuXuXuXuXuXuXuX",
"uXuXuXuXuXuXuXuXuXuXuXuXuXuXuXuXuXuXuXuXuXuXuXuXuXuXuXuXuXuXuXuXuXuXuXuXuXuXuXuXuXuXuXuXuXuXuXuXuX@.b x ; : m M } 4 1 X O $ 0 a j tXuXuXuXuXuXuXuXuXuXuXuXuXuXuXuXuXuXuXuXuXuXuXuXuXuXuXuXuXuXuXuXuXuXuX",
"uXuXuXuXuXuXuXuXuXuXuXuXuXuXuXuXuXuXuXuXuXuXuXuXuXuXuXuXuXuXuXuXuXuXuXuXuXuXuXuXuXuXuXuXuXuXuXuX|.+.l j ; ; m M v 4 1 X O $ 0 a j tXuXuXuXuXuXuXuXuXuXuXuXuXuXuXuXuXuXuXuXuXuXuXuXuXuXuXuXuXuXuXuXuXuXuX",
"uXuXuXuXuXuXuXuXuXuXuXuXuXuXuXuXuXuXuXuXuXuXuXuXuXuXuXuXuXuXuXuXuXuXuXuXuXuXuXuXuXuXuXuXuXuXuXuXoXR b y ; > m M i 2 X X O $ 0 a 0 rXuXuXuXuXuXuXuXuXuXuXuXuXuXuXuXuXuXuXuXuXuXuXuXuXuXuXuXuXuXuXuXuXuXuX",
"uXuXuXuXuXuXuXuXuXuXuXuXuXuXuXuXuXuXuXuXuXuXuXuXuXuXuXuXuXuXuXuXuXuXuXuXuXuXuXuXuXuXuXuXuXuXuXuXoX+.b y ; > M } i 4 1 X o = 0 i e eXuXuXuXuXuXuXuXuXuXuXuXuXuXuXuXuXuXuXuXuXuXuXuXuXuXuXuXuXuXuXuXuXuXuX",
"uXuXuXuXuXuXuXuXuXuXuXuXuXuXuXuXuXuXuXuXuXuXuXuXuXuXuXuXuXuXuXuXuXuXuXuXuXuXuXuXuXuXuXuXuXuXuXuX}.K D t ; > M } i 2 X X o & r i - eXuXuXuXuXuXuXuXuXuXuXuXuXuXuXuXuXuXuXuXuXuXuXuXuXuXuXuXuXuXuXuXuXuXuX",
"uXuXuXuXuXuXuXuXuXuXuXuXuXuXuXuXuXuXuXuXuXuXuXuXuXuXuXuXuXuXuXuXuXuXuXuXuXuXuXuXuXuXuXuXuXuXuXuXI.b D t = > G M 8 2 1 X o & r i * eXuXuXuXuXuXuXuXuXuXuXuXuXuXuXuXuXuXuXuXuXuXuXuXuXuXuXuXuXuXuXuXuXuXuX",
"uXuXuXuXuXuXuXuXuXuXuXuXuXuXuXuXuXuXuXuXuXuXuXuXuXuXuXuXuXuXuXuXuXuXuXuXuXuXuXuXuXuXuXuXuXuXuXuXF.p b t ; t M M a 2 1 X o = r 8 e rXuXuXuXuXuXuXuXuXuXuXuXuXuXuXuXuXuXuXuXuXuXuXuXuXuXuXuXuXuXuXuXuXuXuX",
"uXuXuXuXuXuXuXuXuXuXuXuXuXuXuXuXuXuXuXuXuXuXuXuXuXuXuXuXuXuXuXuXuXuXuXuXuXuXuXuXuXuXuXuXuXuXuXuXF.i D t ; u M M a 2 X X o = w q k tXuXuXuXuXuXuXuXuXuXuXuXuXuXuXuXuXuXuXuXuXuXuXuXuXuXuXuXuXuXuXuXuXuXuX",
"uXuXuXuXuXuXuXuXuXuXuXuXuXuXuXuXuXuXuXuXuXuXuXuXuXuXuXuXuXuXuXuXuXuXuXuXuXuXuXuXuXuXuXuXuXuXuXuXF.v b : ; x G n a 2 X X o = a w k tXuXuXuXuXuXuXuXuXuXuXuXuXuXuXuXuXuXuXuXuXuXuXuXuXuXuXuXuXuXuXuXuXuXuX",
"uXuXuXuXuXuXuXuXuXuXuXuXuXuXuXuXuXuXuXuXuXuXuXuXuXuXuXuXuXuXuXuXuXuXuXuXuXuXuXuXuXuXuXuXuXuXuXuXj.v D : ; z G M 8 2 1 X o = a w Z yXuXuXuXuXuXuXuXuXuXuXuXuXuXuXuXuXuXuXuXuXuXuXuXuXuXuXuXuXuXuXuXuXuXuX",
"uXuXuXuXuXuXuXuXuXuXuXuXuXuXuXuXuXuXuXuXuXuXuXuXuXuXuXuXuXuXuXuXuXuXuXuXuXuXuXuXuXuXuXuXuXuXuXuXF.%.~ T U ~ $.@.+.H l l Z U R R >.yXuXuXuXuXuXuXuXuXuXuXuXuXuXuXuXuXuXuXuXuXuXuXuXuXuXuXuXuXuXuXuXuXuXuX",
"uXuXuXuXuXuXuXuXuXuXuXuXuXuXuXuXuXuXuXuXuXuXuXuXuXuXuXuXuXuXuXuXuXuXuXuXuXuXuXuXuXuXuXuXuXuXuXuXF.%.%.T T ~ $.$.+.H H H U T @.R <.yXuXuXuXuXuXuXuXuXuXuXuXuXuXuXuXuXuXuXuXuXuXuXuXuXuXuXuXuXuXuXuXuXuXuX",
"uXuXuXuXuXuXuXuXuXuXuXuXuXuXuXuXuXuXuXuXuXuXuXuXuXuXuXuXuXuXuXuXuXuXuXuXuXuXuXuXuXuXuXuXuXuXuXuXuXuXuXuXuXuXuXuXuXuXuXuXuXuXuXuXuXuXuXuXuXuXuXuXuXuXuXuXuXuXuXuXuXuXuXuXuXuXuXuXuXuXuXuXuXuXuXuXuXuXuXuX",
"uXuXuXuXuXuXuXuXuXuXuXuXuXuXuXuXuXuXuXuXuXuXuXuXuXuXuXuXuXuXuXuXuXuXuXuXuXuXuXuXuXuXuXuXuXuXuXuXuXuXuXuXuXuXuXuXuXuXuXuXuXuXuXuXuXuXuXuXuXuXuXuXuXuXuXuXuXuXuXuXuXuXuXuXuXuXuXuXuXuXuXuXuXuXuXuXuXuXuXuX"
};
